<svg width="24" height="24" viewBox="0 0 24 24" fill="none" xmlns="http://www.w3.org/2000/svg">
<path d="M11.1922 4.93946L12.0108 6.06126L12.8152 4.92919C13.9861 3.28117 15.3883 2.54999 17.3 2.54999C20.3746 2.54999 23 5.27618 23 8.79999C23 11.955 20.7845 13.9687 18.0873 16.2089C17.8128 16.4086 17.5359 16.6571 17.3041 16.8651C17.2108 16.9488 17.1248 17.0259 17.0492 17.0907L17.04 17.0986L17.031 17.1067L16.031 18.0067L16.031 18.0066L16.0229 18.0141C14.7715 19.1654 13.9306 19.932 13.3415 20.4474C12.7382 20.9753 12.4494 21.1942 12.2855 21.2925C12.2252 21.3287 12.1585 21.3587 12.0968 21.3783C12.0368 21.3974 12.0037 21.3997 12.0003 21.4C12 21.4 11.9999 21.4 12 21.4C12.0001 21.4 12 21.4 11.9997 21.4C11.9963 21.3997 11.9632 21.3974 11.9032 21.3783C11.8415 21.3587 11.7748 21.3287 11.7145 21.2925C11.5541 21.1962 11.2228 20.9348 10.5927 20.3883C10.1545 20.0082 9.60712 19.5221 8.92067 18.9125C8.6561 18.6776 8.37089 18.4243 8.06331 18.1516L8.06334 18.1516L8.05618 18.1454L6.93166 17.1675C6.60691 16.8454 6.2426 16.5339 5.9474 16.2878C3.27309 13.9733 1 11.916 1 8.79999C1 5.27232 3.62562 2.55853 6.68649 2.5999L6.68649 2.59999H6.7C8.61517 2.59999 10.0212 3.33469 11.1922 4.93946Z" fill="#ED4956" stroke="black" stroke-width="2"/>
</svg>
